<svg width="45" height="33" viewBox="0 0 45 33" fill="none" xmlns="http://www.w3.org/2000/svg">
<path d="M22.4183 21.2401C29.2378 21.2401 35.0607 22.3255 35.0607 26.669C35.0607 31.0107 29.2751 32.1356 22.4183 32.1356C15.5988 32.1356 9.77594 31.0502 9.77594 26.7085C9.77594 22.365 15.5615 21.2401 22.4183 21.2401ZM33.3218 18.6246C35.9289 18.5761 38.7318 18.9355 39.7675 19.1907C41.9618 19.6238 43.4051 20.508 44.003 21.7928C44.5084 22.8477 44.5084 24.0715 44.003 25.1246C43.0883 27.1175 40.1395 27.7573 38.9934 27.9226C38.7567 27.9585 38.5663 27.7519 38.5912 27.5129C39.1767 21.9905 34.5195 19.3722 33.3147 18.7702C33.2631 18.7432 33.2524 18.7019 33.2577 18.6768C33.2613 18.6588 33.2826 18.63 33.3218 18.6246ZM11.2278 18.6209L11.7187 18.6254C11.7579 18.6307 11.7775 18.6595 11.781 18.6757C11.7864 18.7026 11.7757 18.7422 11.7259 18.7709C10.5193 19.3729 5.86204 21.9912 6.44754 27.5118C6.47245 27.7526 6.28381 27.9575 6.04712 27.9233C4.90105 27.758 1.95224 27.1182 1.03752 25.1253C0.53033 24.0704 0.53033 22.8484 1.03752 21.7936C1.63547 20.5087 3.07695 19.6245 5.27121 19.1896C6.30873 18.9362 9.10983 18.5768 11.7187 18.6254L11.2278 18.6209ZM22.4183 0.209473C27.0613 0.209473 30.7843 3.96532 30.7843 8.65564C30.7843 13.3442 27.0613 17.1036 22.4183 17.1036C17.7753 17.1036 14.0523 13.3442 14.0523 8.65564C14.0523 3.96532 17.7753 0.209473 22.4183 0.209473ZM33.7756 1.61801C38.2602 1.61801 41.7821 5.87883 40.5826 10.6249C39.7729 13.82 36.8419 15.9423 33.5763 15.8561C33.2488 15.8471 32.9267 15.8166 32.6153 15.7626C32.3893 15.7231 32.2754 15.4661 32.4035 15.2756C33.6492 13.4247 34.3593 11.1981 34.3593 8.80803C34.3593 6.31372 33.5834 3.98832 32.2362 2.08165C32.1935 2.02234 32.1615 1.93069 32.2042 1.86241C32.2398 1.8067 32.3056 1.77794 32.3679 1.76357C32.8217 1.67012 33.288 1.61801 33.7756 1.61801ZM11.2623 1.61783C11.7499 1.61783 12.2161 1.66994 12.6717 1.76339C12.7322 1.77776 12.7999 1.80831 12.8355 1.86223C12.8764 1.93051 12.8461 2.02216 12.8034 2.08147C11.4563 3.98814 10.6803 6.31354 10.6803 8.80785C10.6803 11.1979 11.3904 13.4245 12.6361 15.2755C12.7643 15.4659 12.6504 15.7229 12.4244 15.7625C12.1111 15.8182 11.7908 15.8469 11.4634 15.8559C8.19778 15.9422 5.26676 13.8198 4.45704 10.6247C3.2558 5.87865 6.77765 1.61783 11.2623 1.61783Z" fill="#0066FF"/>
</svg>
