<svg width="37" height="38" viewBox="0 0 37 38" fill="none" xmlns="http://www.w3.org/2000/svg">
<path d="M18.5473 0.232605C28.7208 0.232605 36.9442 8.47442 36.9442 18.6295C36.9442 28.803 28.7208 37.0264 18.5473 37.0264C8.39224 37.0264 0.150421 28.803 0.150421 18.6295C0.150421 8.47442 8.39224 0.232605 18.5473 0.232605ZM17.9034 9.30228C17.1492 9.30228 16.5237 9.90938 16.5237 10.6821V19.9725C16.5237 20.4508 16.7812 20.8923 17.2044 21.1499L24.416 25.4548C24.6367 25.5836 24.8759 25.6571 25.1334 25.6571C25.5934 25.6571 26.0533 25.418 26.3108 24.9765C26.6972 24.3326 26.4948 23.4863 25.8325 23.0816L19.2832 19.1814V10.6821C19.2832 9.90938 18.6577 9.30228 17.9034 9.30228Z" fill="#0066FF"/>
</svg>
