<svg width="50" height="47" viewBox="0 0 50 47" fill="none" xmlns="http://www.w3.org/2000/svg">
<path d="M48.4992 2.00969C47.2669 0.823964 45.443 0.382222 43.7425 0.847213L4.08682 11.6583C2.29258 12.1256 1.02084 13.4671 0.678259 15.1713C0.328284 16.9057 1.55073 19.1074 3.1478 20.0281L15.5473 27.1727C16.819 27.9051 18.4604 27.7214 19.5128 26.7263L33.7115 13.3322C34.4262 12.6347 35.6092 12.6347 36.324 13.3322C37.0387 14.0065 37.0387 15.0992 36.324 15.7967L22.1007 29.1931C21.0458 30.1859 20.8487 31.7319 21.625 32.9316L29.2012 44.6727C30.0885 46.0676 31.6166 46.8581 33.2925 46.8581C33.4897 46.8581 33.7115 46.8581 33.9086 46.8349C35.831 46.6024 37.3591 45.3701 37.926 43.6264L49.6822 6.49686C50.1997 4.91589 49.7315 3.19542 48.4992 2.00969Z" fill="#0066FF"/>
</svg>
