<svg width="50" height="57" viewBox="0 0 50 57" fill="none" xmlns="http://www.w3.org/2000/svg">
<path d="M26.8781 1.00717L45.8425 7.25483C47.9653 7.95085 49.4007 9.86559 49.4122 12.0114L49.533 30.6416C49.5704 36.2895 47.4734 41.7669 43.6334 46.0585C41.8672 48.0283 39.6035 49.7202 36.7126 51.2333L26.5185 56.5841C26.1992 56.7492 25.8483 56.8344 25.4945 56.8373C25.1407 56.8399 24.7869 56.7574 24.4705 56.5951L14.1814 51.3681C11.2589 49.8798 8.97502 48.2126 7.19162 46.2704C3.28828 42.0227 1.11943 36.5701 1.08204 30.914L0.961159 12.2975C0.949723 10.1489 2.35918 8.22045 4.4705 7.49692L23.363 1.02643C24.4848 0.635776 25.7361 0.627523 26.8781 1.00717ZM35.9469 20.9796C35.0984 20.179 33.7321 20.1845 32.895 20.9961L23.2704 30.3112L19.3297 26.5918C18.4811 25.7912 17.1177 25.7995 16.2778 26.611C15.4407 27.4226 15.4493 28.7266 16.2979 29.5271L21.7718 34.6991C22.1975 35.1008 22.7498 35.2989 23.302 35.2935C23.8543 35.2906 24.4037 35.087 24.8237 34.6799L35.9642 23.8957C36.8012 23.0842 36.7926 21.7802 35.9469 20.9796Z" fill="#0066FF"/>
</svg>
