<svg width="50" height="50" viewBox="0 0 50 50" fill="none" xmlns="http://www.w3.org/2000/svg">
<g clip-path="url(#clip0_34_245)">
<path d="M25.2879 49.3268C11.8218 49.3268 0.892685 38.3978 0.892685 24.9316C0.892685 11.4654 11.8218 0.536377 25.2879 0.536377C38.7541 0.536377 49.6832 11.4654 49.6832 24.9316C49.6832 38.3978 38.7541 49.3268 25.2879 49.3268Z" fill="#111111"/>
<path d="M32.0373 24.2893C32.0698 28.038 35.3225 29.2822 35.355 29.2984C35.3306 29.3879 34.8346 31.0711 33.6473 32.8195C32.6146 34.3238 31.5412 35.8201 29.858 35.8526C28.2072 35.8851 27.6705 34.8687 25.7758 34.8687C23.8811 34.8687 23.2956 35.8201 21.7262 35.8851C20.0999 35.9502 18.8557 34.2588 17.823 32.7544C15.6925 29.6806 14.0742 24.0778 16.2535 20.2966C17.3351 18.41 19.2704 17.2228 21.3684 17.1902C22.9704 17.1659 24.4747 18.2636 25.4506 18.2636C26.4264 18.2636 28.2641 16.9382 30.1914 17.1333C30.9964 17.1659 33.257 17.4586 34.7126 19.5891C34.5906 19.6623 32.0129 21.1667 32.0373 24.2893ZM28.9228 15.1004C29.7929 14.0595 30.3703 12.6039 30.2158 11.1565C28.9635 11.2053 27.4591 11.9859 26.5646 13.0268C25.7677 13.9538 25.0684 15.4338 25.2554 16.8568C26.6459 16.9626 28.0608 16.1494 28.9228 15.1004Z" fill="white"/>
</g>
<defs>
<clipPath id="clip0_34_245">
<rect width="48.7905" height="48.7905" fill="white" transform="translate(0.892685 0.536377)"/>
</clipPath>
</defs>
</svg>
