<svg width="50" height="50" viewBox="0 0 50 50" fill="none" xmlns="http://www.w3.org/2000/svg">
<g clip-path="url(#clip0_34_824)">
<path d="M25.1829 49.456C11.7747 49.456 0.892685 38.5739 0.892685 25.1657C0.892685 11.7575 11.7747 0.875488 25.1829 0.875488C38.5911 0.875488 49.4732 11.7575 49.4732 25.1657C49.4732 38.5739 38.5911 49.456 25.1829 49.456Z" fill="#DEDEDE"/>
<path d="M36.6803 25.0121C36.6803 31.5381 31.3931 36.8253 24.8672 36.8253C18.3412 36.8253 13.054 31.5381 13.054 25.0121C13.054 18.4862 18.3412 13.199 24.8672 13.199C31.3931 13.199 36.6803 18.4862 36.6803 25.0121Z" fill="#FAB217"/>
<path d="M15.9121 32.7202C18.0821 35.2302 21.2884 36.8253 24.8672 36.8253C28.4459 36.8253 31.6522 35.2383 33.8141 32.7283C33.0692 32.8336 30.6806 33.0765 24.8752 33.0765C18.9079 33.0765 16.6004 32.8174 15.9121 32.7202Z" fill="#241D10"/>
<path d="M36.3888 27.6436C36.5831 26.8015 36.6803 25.9189 36.6803 25.0121C36.6803 23.9838 36.5508 22.9798 36.2998 22.0244C35.1338 22.0001 31.4498 21.9272 24.9238 21.9272C18.325 21.9272 14.5843 22.0001 13.4345 22.0325C13.1835 22.9798 13.054 23.9838 13.054 25.0121C13.054 25.927 13.1593 26.8258 13.3536 27.6759C14.7624 27.7002 20.2763 27.7893 25.021 27.7893C29.8386 27.7893 35.15 27.6759 36.3888 27.6436Z" fill="#241D10"/>
<path d="M33.7169 17.1907C31.5551 14.7455 28.3892 13.199 24.8672 13.199C21.3451 13.199 18.1792 14.7455 16.0174 17.1907C16.8109 17.0854 19.1913 16.8506 24.851 16.8506C30.4701 16.8506 32.8748 17.0773 33.7169 17.1907Z" fill="#241D10"/>
<path d="M13.054 25.0118C13.054 18.4858 18.3412 13.1987 24.8672 13.1987C31.3931 13.1987 36.6803 18.4858 36.6803 25.0118C36.6803 31.5378 31.3931 36.825 24.8672 36.825C18.3412 36.825 13.054 31.5378 13.054 25.0118ZM24.8672 12.8667C18.163 12.8667 12.722 18.3077 12.722 25.0118C12.722 31.7159 18.163 37.1569 24.8672 37.1569C31.5794 37.1569 37.0123 31.7159 37.0123 25.0118C37.0123 18.3077 31.5794 12.8667 24.8672 12.8667Z" fill="#241D10"/>
</g>
<defs>
<clipPath id="clip0_34_824">
<rect width="48.5805" height="48.5805" fill="white" transform="translate(0.892685 0.875488)"/>
</clipPath>
</defs>
</svg>
