<svg width="49" height="50" viewBox="0 0 49 50" fill="none" xmlns="http://www.w3.org/2000/svg">
<g clip-path="url(#clip0_34_256)">
<path d="M24.4245 49.666C10.9583 49.666 0.0292664 38.7369 0.0292664 25.2707C0.0292664 11.8046 10.9583 0.875488 24.4245 0.875488C37.8907 0.875488 48.8197 11.8046 48.8197 25.2707C48.8197 38.7369 37.8907 49.666 24.4245 49.666Z" fill="#ECECEC"/>
<path d="M36.1911 24.9049C36.1911 24.0592 36.1261 23.246 35.9878 22.4653C35.2316 22.4653 31.4585 22.4653 24.6603 22.4653V27.0842C28.5554 27.0842 30.7185 27.0842 31.1495 27.0842C30.873 28.5885 30.0273 29.8734 28.7506 30.7272C28.7506 30.9305 28.7506 31.9307 28.7506 33.7278C31.0763 33.7278 32.3611 33.7278 32.6213 33.7278C34.8901 31.6379 36.1911 28.556 36.1911 24.9049Z" fill="#4285F4"/>
<path d="M24.6603 36.6306C27.9049 36.6306 30.629 35.5654 32.6213 33.7276C32.231 33.4267 29.1409 31.0278 28.7506 30.727C27.6772 31.4588 26.2867 31.8817 24.6603 31.8817C21.5296 31.8817 18.8705 29.7674 17.9191 26.9294C17.6589 26.9294 16.3253 26.9294 13.9345 26.9294C13.9345 28.7835 13.9345 29.8081 13.9345 30.0195C15.9106 33.939 19.9683 36.6306 24.6603 36.6306Z" fill="#34A853"/>
<path d="M17.9191 26.9296C17.6752 26.2059 17.545 25.4252 17.545 24.6283C17.545 23.8314 17.6752 23.0589 17.9191 22.3352C17.9191 22.1319 17.9191 21.0992 17.9191 19.2451C15.5284 19.2451 14.2029 19.2451 13.9346 19.2451C13.1132 20.8633 12.6579 22.693 12.6579 24.6283C12.6579 26.5718 13.1132 28.4015 13.9346 30.0197C14.7315 29.4017 17.1222 27.5476 17.9191 26.9296Z" fill="#FABB05"/>
<path d="M24.6603 17.5131C26.433 17.5131 28.0187 18.123 29.271 19.3102C29.271 19.3102 29.271 19.3102 29.271 19.3183C31.3284 17.261 32.4668 16.1226 32.6945 15.8867C30.6128 13.9514 27.9049 12.7642 24.6603 12.7642C19.9683 12.7642 15.9106 15.4558 13.9345 19.3753C14.333 19.6843 17.5206 22.1563 17.9191 22.4653C18.8705 19.6192 21.5296 17.5131 24.6603 17.5131Z" fill="#E94235"/>
</g>
<defs>
<clipPath id="clip0_34_256">
<rect width="48.7905" height="48.7905" fill="white" transform="translate(0.0292664 0.875488)"/>
</clipPath>
</defs>
</svg>
