<svg width="49" height="50" viewBox="0 0 49 50" fill="none" xmlns="http://www.w3.org/2000/svg">
<path d="M24.3195 49.0292C10.9113 49.0292 0.0292664 38.1472 0.0292664 24.739C0.0292664 11.3308 10.9113 0.44873 24.3195 0.44873C37.7277 0.44873 48.6098 11.3308 48.6098 24.739C48.6098 38.1472 37.7277 49.0292 24.3195 49.0292Z" fill="#AD14F5"/>
<path d="M24.3195 49.0292C10.9113 49.0292 0.0292664 38.1472 0.0292664 24.739C0.0292664 11.3308 10.9113 0.44873 24.3195 0.44873C37.7277 0.44873 48.6098 11.3308 48.6098 24.739C48.6098 38.1472 37.7277 49.0292 24.3195 49.0292Z" fill="#AD14F5"/>
<g clip-path="url(#clip0_34_822)">
<path d="M28.4035 15.2341C22.9416 15.2341 18.5969 19.5053 18.5969 24.739C18.5969 30.0328 23.0037 34.2439 28.4035 34.2439C33.8034 34.2439 38.2102 29.9727 38.2102 24.739C38.2722 19.5053 33.8034 15.2341 28.4035 15.2341ZM28.4035 28.2883C26.4174 28.2883 24.7415 26.6641 24.7415 24.739C24.7415 22.814 26.4174 21.1897 28.4035 21.1897C30.3897 21.1897 32.0655 22.814 32.0655 24.739C32.0655 26.6641 30.4517 28.2883 28.4035 28.2883Z" fill="white"/>
<path d="M18.5969 18.0015V31.8377H15.0591L10.5902 18.0015H18.5969Z" fill="white"/>
</g>
<defs>
<clipPath id="clip0_34_822">
<rect width="27.4585" height="19.0098" fill="white" transform="translate(10.5902 15.2341)"/>
</clipPath>
</defs>
</svg>
