<svg width="49" height="50" viewBox="0 0 49 50" fill="none" xmlns="http://www.w3.org/2000/svg">
<g clip-path="url(#clip0_34_105)">
<path d="M24.4245 49.3268C10.9583 49.3268 0.0292664 38.3978 0.0292664 24.9316C0.0292664 11.4654 10.9583 0.536377 24.4245 0.536377C37.8907 0.536377 48.8197 11.4654 48.8197 24.9316C48.8197 38.3978 37.8907 49.3268 24.4245 49.3268Z" fill="#222222"/>
<path d="M28.5554 32.3561C23.6032 32.3561 20.8465 32.3561 20.2936 32.3561C20.2936 23.4437 20.2936 18.4996 20.2936 17.5076C25.2458 17.5076 28.0025 17.5076 28.5554 17.5076C28.5554 26.42 28.5554 31.3641 28.5554 32.3561Z" fill="#FF5F00"/>
<path d="M24.4408 17.5076C26.0427 16.2553 28.0513 15.499 30.255 15.499C35.4755 15.499 39.6959 19.7357 39.6959 24.9318C39.6959 30.1524 35.4755 34.3647 30.255 34.3647C28.0513 34.3647 26.0427 33.6084 24.4408 32.3561C26.6363 30.6241 28.035 27.9487 28.035 24.9318C28.035 21.915 26.6201 19.2396 24.4408 17.5076Z" fill="#F79E1B"/>
<path d="M18.594 34.3647C20.7977 34.3647 22.8063 33.6084 24.4082 32.3561C22.2289 30.6485 20.814 27.9487 20.814 24.9318C20.814 21.915 22.2289 19.2396 24.4082 17.5076C22.8063 16.2553 20.7977 15.499 18.594 15.499C13.3735 15.499 9.15309 19.7113 9.15309 24.9318C9.15309 30.1524 13.3735 34.3647 18.594 34.3647Z" fill="#EB001B"/>
</g>
<defs>
<clipPath id="clip0_34_105">
<rect width="48.7905" height="48.7905" fill="white" transform="translate(0.0292664 0.536377)"/>
</clipPath>
</defs>
</svg>
