<svg width="50" height="50" viewBox="0 0 50 50" fill="none" xmlns="http://www.w3.org/2000/svg">
<g clip-path="url(#clip0_34_208)">
<path d="M49.6832 24.6977C49.6832 38.1639 38.7541 49.093 25.2879 49.093C11.8218 49.093 0.892685 38.1639 0.892685 24.6977C0.892685 11.2316 11.8218 0.30249 25.2879 0.30249C38.7541 0.30249 49.6832 11.2316 49.6832 24.6977Z" fill="#20AA4D"/>
<path d="M27.2883 20.7913L25.0602 25.6052H24.8407V19.7423H21.6774C21.6774 25.6947 21.6774 29.0043 21.6774 29.6629C23.2875 29.6629 24.182 29.6629 24.3609 29.6629C25.0602 29.6629 25.7026 29.2564 25.9954 28.614C26.1418 28.2968 26.8899 26.6868 28.2235 23.8C28.2316 23.8 28.3129 23.8 28.443 23.8V29.6629H31.6063C31.6063 23.7106 31.6063 20.401 31.6063 19.7423C29.9962 19.7423 29.1017 19.7423 28.9228 19.7423C28.2235 19.7423 27.5811 20.1489 27.2883 20.7913Z" fill="white"/>
<path d="M37.3798 23.8C40.6407 23.8 42.4459 23.8 42.8118 23.8C42.8525 23.5805 42.8769 23.3528 42.8769 23.1251C42.8769 21.2548 41.3562 19.7423 39.4941 19.7423C35.7697 19.7423 33.4359 19.7423 32.5008 19.7423C32.9236 22.0517 34.9484 23.8 37.3798 23.8Z" fill="url(#paint0_linear_34_208)"/>
<path d="M15.4404 21.0515L14.1312 25.6052C13.9929 25.6052 13.9116 25.6052 13.9035 25.6052C13.1147 22.873 12.6756 21.3524 12.5861 21.0515C12.3666 20.2709 11.6591 19.7423 10.8541 19.7423C10.6426 19.7423 9.59365 19.7423 7.69895 19.7423C7.69895 20.401 7.69895 23.7106 7.69895 29.6629H10.8541V23.8H11.0818L12.887 29.6629H15.1395L16.9447 23.8H17.1724V29.6629H20.3276C20.3276 23.7106 20.3276 20.401 20.3276 19.7423C18.441 19.7423 17.3839 19.7423 17.1724 19.7423C16.3674 19.7423 15.6681 20.2709 15.4404 21.0515Z" fill="white"/>
<path d="M32.9562 29.6647H36.1031C36.1031 27.7699 36.1031 26.7209 36.1031 26.5095C38.1361 26.5095 39.2664 26.5095 39.4941 26.5095C40.9659 26.5095 42.2182 25.5662 42.6817 24.257C41.3806 24.257 38.1442 24.257 32.9562 24.257C32.9562 24.9726 32.9562 26.7778 32.9562 29.6647Z" fill="white"/>
</g>
<defs>
<linearGradient id="paint0_linear_34_208" x1="32.5008" y1="21.7671" x2="42.8769" y2="21.7671" gradientUnits="userSpaceOnUse">
<stop stop-color="#00A7E3"/>
<stop offset="0.00985222" stop-color="#00A7E3"/>
<stop offset="0.263168" stop-color="#00A7E3"/>
<stop offset="1" stop-color="#007EC4"/>
</linearGradient>
<clipPath id="clip0_34_208">
<rect width="48.7905" height="48.7905" fill="white" transform="translate(0.892685 0.30249)"/>
</clipPath>
</defs>
</svg>
