<svg width="50" height="50" viewBox="0 0 50 50" fill="none" xmlns="http://www.w3.org/2000/svg">
<g clip-path="url(#clip0_34_872)">
<path d="M25.1829 49.2707C11.7747 49.2707 0.892681 38.3886 0.892681 24.9804C0.892681 11.5722 11.7747 0.690186 25.1829 0.690186C38.5911 0.690186 49.4732 11.5722 49.4732 24.9804C49.4732 38.3886 38.5911 49.2707 25.1829 49.2707Z" fill="#ED1C24"/>
<path d="M20.0739 29.6522C20.0739 30.3323 19.5314 30.8748 18.8594 30.8748C17.8797 30.8748 10.0825 30.8748 9.11088 30.8748C8.43885 30.8748 7.88828 30.3323 7.88828 29.6522C7.88828 28.6806 7.88828 20.8834 7.88828 19.9118C7.88828 19.2398 8.43885 18.6892 9.11088 18.6892C10.0825 18.6892 17.8797 18.6892 18.8594 18.6892C19.5314 18.6892 20.0739 19.2398 20.0739 19.9118C20.0739 20.5596 20.0739 23.8064 20.0739 29.6522Z" fill="url(#paint0_linear_34_872)"/>
<path d="M9.11088 30.2677C8.77082 30.2677 8.50362 29.9924 8.50362 29.6523C8.50362 28.6807 8.50362 20.8836 8.50362 19.9119C8.50362 19.5719 8.77082 19.3047 9.11088 19.3047C10.0825 19.3047 17.8797 19.3047 18.8594 19.3047C19.1913 19.3047 19.4666 19.5719 19.4666 19.9119C19.4666 20.8836 19.4666 28.6807 19.4666 29.6523C19.4666 29.9924 19.1913 30.2677 18.8594 30.2677C18.2035 30.2677 14.9567 30.2677 9.11088 30.2677Z" fill="url(#paint1_radial_34_872)"/>
<path d="M13.9851 29.6604C12.8192 29.6604 11.8557 29.2231 11.1998 28.3892C10.6412 27.6847 10.3254 26.7212 10.3254 25.6848C10.3254 24.438 10.7464 22.9967 11.4508 21.847C12.1957 20.6163 13.1188 19.9119 13.9851 19.9119C14.8434 19.9119 15.7664 20.6163 16.5194 21.8389C17.2157 22.9967 17.6368 24.438 17.6368 25.6848C17.6368 26.7212 17.3291 27.6847 16.7623 28.3892C16.1065 29.2231 15.143 29.6604 13.9851 29.6604Z" fill="url(#paint2_linear_34_872)"/>
<path d="M13.9851 29.2962C11.7018 29.2962 10.6897 27.4825 10.6897 25.685C10.6897 23.1588 12.4467 20.2683 13.9851 20.2683C15.5235 20.2683 17.2805 23.1588 17.2805 25.685C17.2805 27.4825 16.2603 29.2962 13.9851 29.2962Z" fill="url(#paint3_radial_34_872)"/>
<path d="M31.1097 23.2804H32.8667V27.8307H34.6966V23.2804H36.4536L36.5589 21.7339H31.0045L31.1097 23.2804Z" fill="white"/>
<path d="M27.3771 27.2154L28.3568 24.8835H28.4621L28.6645 27.8307H30.4296L30.0248 21.7339H28.3164L26.8428 25.1993H26.7375L25.2072 21.7339H23.5231L23.1183 27.8307H24.8429L25.021 24.8835H25.1262L26.2193 27.2154H27.3771Z" fill="white"/>
<path d="M41.7246 26.3083C41.7246 26.3083 40.9959 26.4054 40.1619 26.4054C39.1498 26.4054 38.9474 26.0815 38.9474 25.2719C38.9474 25.1747 38.9474 24.4055 38.9474 24.3084C38.9474 23.4744 39.1255 23.1586 40.1619 23.1586C40.9149 23.1586 41.6436 23.2639 41.6436 23.2639C41.6517 23.1181 41.7408 21.9198 41.7489 21.7741C41.7489 21.7741 40.8258 21.6445 40.0243 21.6445C37.9029 21.6445 37.1337 22.3489 37.1337 24.0493C37.1337 24.195 37.1337 25.3852 37.1337 25.531C37.1337 27.4094 38.0649 27.9357 40.0162 27.9357C40.8016 27.9357 41.8379 27.8062 41.8379 27.8062C41.8298 27.709 41.7975 27.207 41.7246 26.3083Z" fill="white"/>
</g>
<defs>
<linearGradient id="paint0_linear_34_872" x1="14.6491" y1="12.1875" x2="21.8956" y2="19.4422" gradientUnits="userSpaceOnUse">
<stop stop-color="#F04145"/>
<stop offset="0.2" stop-color="#EF2C38"/>
<stop offset="1" stop-color="#910F14"/>
</linearGradient>
<radialGradient id="paint1_radial_34_872" cx="0" cy="0" r="1" gradientUnits="userSpaceOnUse" gradientTransform="translate(9.28899 19.9524) scale(848.053 848.054)">
<stop stop-color="#F79AAA"/>
<stop offset="0.576923" stop-color="#ED1C24"/>
<stop offset="1" stop-color="#A01116"/>
</radialGradient>
<linearGradient id="paint2_linear_34_872" x1="13.4022" y1="32.3809" x2="7.24053" y2="26.2273" gradientUnits="userSpaceOnUse">
<stop stop-color="#ED1C24"/>
<stop offset="1" stop-color="#AA1318"/>
</linearGradient>
<radialGradient id="paint3_radial_34_872" cx="0" cy="0" r="1" gradientUnits="userSpaceOnUse" gradientTransform="translate(12.1229 22.6569) scale(428.61)">
<stop stop-color="white"/>
<stop offset="0.249818" stop-color="white"/>
<stop offset="0.66" stop-color="#BEC4C6"/>
<stop offset="0.808961" stop-color="#BEC4C6"/>
<stop offset="1" stop-color="#E8F0F3"/>
</radialGradient>
<clipPath id="clip0_34_872">
<rect width="48.5805" height="48.5805" fill="white" transform="translate(0.892681 0.690186)"/>
</clipPath>
</defs>
</svg>
