<svg width="49" height="50" viewBox="0 0 49 50" fill="none" xmlns="http://www.w3.org/2000/svg">
<g clip-path="url(#clip0_34_289)">
<path d="M24.3195 49.2707C10.9113 49.2707 0.0292664 38.3886 0.0292664 24.9804C0.0292664 11.5722 10.9113 0.690186 24.3195 0.690186C37.7277 0.690186 48.6098 11.5722 48.6098 24.9804C48.6098 38.3886 37.7277 49.2707 24.3195 49.2707Z" fill="#F57D14"/>
<path d="M24.6191 30.5754C24.4895 30.5835 24.3924 30.5835 24.279 30.5835C20.3521 30.5835 17.1458 27.4986 17.1458 23.7012C17.1458 19.8715 20.3521 16.7704 24.279 16.7704C28.2302 16.7704 31.4123 19.8715 31.4123 23.7012C31.4123 23.9603 31.4123 24.2275 31.3637 24.4866C30.8536 24.4056 29.8253 24.3814 29.0966 24.4542C28.8294 24.4704 28.8618 24.5919 29.0723 24.6405C31.4285 25.0372 33.0559 26.4541 33.4122 29.0289C33.4365 29.0775 33.5336 29.1018 33.5498 29.037C34.5214 27.4824 35.0801 25.6364 35.0801 23.7012C35.0801 17.9363 30.2463 13.2402 24.279 13.2402C18.3198 13.2402 13.4861 17.9363 13.4861 23.7012C13.4861 29.458 18.3198 34.1298 24.279 34.1298C25.8579 34.1298 27.4287 33.8303 29.72 33.8303C31.8009 33.8303 34.0437 34.5266 36.5375 36.6479C36.7723 36.8584 37.1205 36.5913 36.91 36.3403C34.4728 33.3445 32.1896 32.7858 29.9387 32.3C27.1696 31.717 25.7688 30.211 24.781 28.5593C24.5867 28.2354 24.4895 28.3002 24.4815 28.7374C24.4572 29.2232 24.4895 29.9114 24.6191 30.5754ZM30.9022 31.2312C30.7645 31.4093 30.5297 31.5065 30.2625 31.5065C30.0115 31.5065 29.72 31.4093 29.5419 31.2474C29.0804 30.883 28.9509 30.2839 29.2585 29.9438C29.3638 29.8062 29.55 29.7333 29.7686 29.7333C30.0277 29.7333 30.303 29.8467 30.5297 30.041C31.0155 30.4377 31.1613 30.9073 30.9022 31.2312ZM32.7563 29.037C32.8292 29.4985 32.6673 29.6928 32.5215 29.6928C32.3596 29.6928 32.1572 29.4985 31.9062 29.1261C31.6714 28.7779 31.5823 28.365 31.7037 28.1544C31.7685 28.0249 31.9467 27.9601 32.1572 28.0249C32.5458 28.1706 32.7077 28.7779 32.7563 29.037Z" fill="white"/>
</g>
<defs>
<clipPath id="clip0_34_289">
<rect width="48.5805" height="48.5805" fill="white" transform="translate(0.0292664 0.690186)"/>
</clipPath>
</defs>
</svg>
