<svg width="50" height="50" viewBox="0 0 50 50" fill="none" xmlns="http://www.w3.org/2000/svg">
<g clip-path="url(#clip0_34_942)">
<path d="M25.1829 49.0292C11.7747 49.0292 0.892685 38.1472 0.892685 24.739C0.892685 11.3308 11.7747 0.44873 25.1829 0.44873C38.5911 0.44873 49.4732 11.3308 49.4732 24.739C49.4732 38.1472 38.5911 49.0292 25.1829 49.0292Z" fill="#DEDEDE"/>
<path d="M6.91666 22.7635H13.8556V20.4722H6.91666V22.7635Z" fill="#231F20"/>
<path d="M9.04611 30.6252H11.7423V23.2976H9.04611V30.6252Z" fill="#231F20"/>
<path d="M14.4223 30.6255H17.1267V20.4722H14.4223V30.6255Z" fill="#231F20"/>
<path d="M21.5232 30.6255H24.2194V20.4722H21.5232V30.6255Z" fill="#231F20"/>
<path d="M17.7015 22.7635H20.3977V20.4722H17.7015V22.7635Z" fill="#231F20"/>
<path d="M17.7015 26.6903H20.3977V24.3989H17.7015V26.6903Z" fill="#231F20"/>
<path d="M17.7015 30.6252H20.3977V28.3257H17.7015V30.6252Z" fill="#231F20"/>
<path d="M24.7781 30.6252H27.4743V28.3257H24.7781V30.6252Z" fill="#231F20"/>
<path d="M28.0492 30.6255H30.7535V20.4722H28.0492V30.6255Z" fill="#231F20"/>
<path d="M31.3284 22.7635H34.0246V20.4722H31.3284V22.7635Z" fill="#231F20"/>
<path d="M31.3284 26.6903H34.0246V24.3989H31.3284V26.6903Z" fill="#231F20"/>
<path d="M31.3284 30.6252H34.0246V28.3257H31.3284V30.6252Z" fill="#231F20"/>
<path d="M39.0931 21.314C39.0931 19.889 39.0931 19.0955 39.0931 18.9336C36.7046 18.9984 35.3929 20.893 35.3929 23.5811C35.652 23.5811 37.6762 23.5811 37.9353 23.5811C37.8462 22.5609 38.2349 21.5974 39.0931 21.314Z" fill="#231F20"/>
<path d="M43.433 22.3344C43.4573 20.4721 42.1294 18.9014 39.6923 18.958C39.6923 19.1928 39.6923 21.0794 39.6923 21.3142C40.4048 21.5166 40.8177 21.8486 40.8177 22.5611C40.8177 24.0752 38.8097 25.9779 35.3929 28.4474C35.3929 28.5932 35.3929 29.3219 35.3929 30.6254C35.9273 30.6254 38.6073 30.6254 43.4168 30.6254C43.4168 29.2571 43.4168 28.5041 43.4168 28.3503C40.9797 28.3503 39.6356 28.3503 39.3603 28.3503C42.7772 25.6217 43.4168 24.1157 43.433 22.3344Z" fill="#231F20"/>
</g>
<defs>
<clipPath id="clip0_34_942">
<rect width="48.5805" height="48.5805" fill="white" transform="translate(0.892685 0.44873)"/>
</clipPath>
</defs>
</svg>
