<svg width="49" height="50" viewBox="0 0 49 50" fill="none" xmlns="http://www.w3.org/2000/svg">
<path d="M48.8197 24.6977C48.8197 38.1639 37.8907 49.093 24.4245 49.093C10.9583 49.093 0.0292664 38.1639 0.0292664 24.6977C0.0292664 11.2316 10.9583 0.30249 24.4245 0.30249C37.8907 0.30249 48.8197 11.2316 48.8197 24.6977Z" fill="#005198"/>
<path d="M21.2694 30.8371H17.9272L20.0171 18.5663H23.3755L21.2694 30.8371Z" fill="white"/>
<path d="M27.6935 25.7385C28.9864 26.3483 29.4337 26.7224 29.4093 27.2672C29.4093 28.0967 28.3765 28.4707 27.417 28.4707C26.0834 28.4707 25.3678 28.2756 24.27 27.8283C24.2375 27.812 24.0911 27.747 23.8309 27.625C23.5544 29.2676 23.3999 30.1784 23.3755 30.3573C24.148 30.7151 25.5873 31.0078 27.0917 31.0241C30.6128 31.0241 32.8815 29.3815 32.9222 26.8281C32.9384 25.4376 32.0358 24.3723 30.1005 23.4941C28.9376 22.933 28.2302 22.5671 28.2302 21.9816C28.2302 21.4612 28.84 20.9245 30.1411 20.9245C31.2389 20.9001 32.0358 21.144 32.6457 21.388C32.6701 21.4042 32.7677 21.4449 32.9466 21.5262C32.9954 21.2579 33.3613 19.1355 33.4101 18.8753C32.2716 18.5337 31.2633 18.3711 30.4095 18.3711C27.0917 18.3711 24.7742 20.0218 24.7579 22.4126C24.7416 24.169 26.4168 25.153 27.6935 25.7385Z" fill="white"/>
<path d="M32.6782 30.8535C34.7843 30.8535 35.9553 30.8535 36.183 30.8535C36.183 30.8535 36.7522 29.3329 36.8905 29.0076C37.2889 29.0076 40.688 29.0076 41.1759 29.0076C41.2816 29.4304 41.5825 30.8535 41.5825 30.8535C41.7858 30.8535 42.8266 30.8535 44.6807 30.8535C44.4123 29.6256 42.2656 19.8106 41.9972 18.5908C40.4359 18.5908 39.5739 18.5908 39.4032 18.5908C38.6063 18.5908 37.9964 18.8022 37.6386 19.5992C37.3133 20.3473 35.6544 24.1041 32.6782 30.8535ZM39.8586 22.9494C39.8586 22.9494 40.4928 25.8769 40.6392 26.4949C40.444 26.4949 39.5252 26.4949 37.8663 26.4949C38.5737 24.6652 39.021 23.5268 39.1999 23.0714C39.1592 23.1039 39.4682 22.3639 39.639 21.9004C39.6553 22.0143 39.8342 22.8519 39.8586 22.9494Z" fill="white"/>
<path d="M6.86806 20.1033C7.06323 20.8189 8.07156 24.3969 9.86055 30.8372C10.0964 30.8372 11.2755 30.8372 13.3979 30.8372C13.7557 30.0159 15.504 25.9338 18.6672 18.5908H15.1299C13.1539 23.6 12.0642 26.3892 11.8447 26.9421C11.6251 25.8931 11.5194 25.332 11.5032 25.2507C10.8933 23.291 8.99045 21.1686 6.86806 20.1033Z" fill="white"/>
<path d="M11.5032 25.2506C11.3893 24.6814 10.4379 20.1764 10.3241 19.6153C10.1126 18.8346 9.53528 18.5988 8.81969 18.5663C8.09596 18.5663 6.29884 18.5663 3.41207 18.5663C3.39581 18.7289 3.37955 18.8184 3.37955 18.8346C7.5674 19.8511 10.3566 22.3069 11.5032 25.2506Z" fill="#F8A600"/>
</svg>
