<svg width="836" height="785" viewBox="0 0 836 785" fill="none" xmlns="http://www.w3.org/2000/svg">
<path fill-rule="evenodd" clip-rule="evenodd" d="M306.632 240.376C367.121 241.186 428.299 197.407 482.993 224.259C540.234 252.363 581.323 315.346 591.54 380.254C601.251 441.943 553.649 494.071 534.808 553.435C516.087 612.425 524.827 683.679 481.618 726.613C436.574 771.37 367.421 794.475 306.632 780.158C248.848 766.55 229.795 690.973 181.139 655.848C130.696 619.433 51.7958 627.745 19.9332 573.188C-13.0945 516.636 0.716971 442.71 19.8074 379.607C39.0371 316.045 68.8294 247.699 126.937 219.492C182.911 192.32 244.853 239.548 306.632 240.376Z" fill="#1B1F25"/>
<path fill-rule="evenodd" clip-rule="evenodd" d="M474.188 0.70643C532.766 5.77413 573.011 58.1898 623.648 89.2044C681.722 124.774 757.024 135.869 792.31 195.551C831.116 261.186 853.489 351.215 818.812 419.299C784.343 486.976 689.576 481.158 626.595 520.913C571.437 555.731 537.621 624.474 474.188 636.837C405.149 650.294 328.93 634.775 273.683 589.7C219.261 545.298 192.898 472.069 184.729 400.675C177.502 337.526 210.249 280.656 231.493 221.016C251.687 164.324 261.668 101.451 305.481 61.6788C351.445 19.9548 413.365 -4.55559 474.188 0.70643Z" fill="#23262E"/>
</svg>
