<svg width="33" height="27" viewBox="0 0 33 27" fill="none" xmlns="http://www.w3.org/2000/svg">
<path fill-rule="evenodd" clip-rule="evenodd" d="M2.35473 11.3412C10.9329 7.65182 16.6435 5.20031 19.511 4.01096C27.6725 0.637085 29.3882 0.0545459 30.4911 0.0302734C30.7362 0.0302734 31.2754 0.0788187 31.643 0.370088C31.9371 0.612813 32.0106 0.928355 32.0596 1.17108C32.1087 1.4138 32.1577 1.92352 32.1087 2.31188C31.6675 6.92365 29.7558 18.1132 28.7754 23.259C28.3588 25.4435 27.55 26.1717 26.7657 26.2445C25.0501 26.3902 23.7511 25.128 22.109 24.06C19.511 22.3852 18.065 21.3415 15.5406 19.691C12.624 17.7977 14.5112 16.754 16.1778 15.0549C16.619 14.618 24.1432 7.82173 24.2903 7.21492C24.3148 7.1421 24.3148 6.85083 24.1432 6.7052C23.9717 6.55956 23.7266 6.60811 23.5305 6.65665C23.2609 6.7052 19.1434 9.42371 11.129 14.7879C9.95252 15.5889 8.89863 15.9773 7.94278 15.953C6.8889 15.9287 4.87916 15.3705 3.3596 14.885C1.52143 14.3025 0.0508865 13.9869 0.173432 12.9675C0.246959 12.4335 0.982228 11.8995 2.35473 11.3412Z" fill="white"/>
</svg>
