<svg width="37" height="22" viewBox="0 0 37 22" fill="none" xmlns="http://www.w3.org/2000/svg">
<path fill-rule="evenodd" clip-rule="evenodd" d="M35.2458 1.93164C35.4957 1.09992 35.2458 0.48877 34.0561 0.48877H30.1223C29.1221 0.48877 28.661 1.01671 28.4109 1.59888C28.4109 1.59888 26.4104 6.46437 23.5764 9.62482C22.6596 10.5397 22.2428 10.8308 21.7427 10.8308C21.4926 10.8308 21.1307 10.5397 21.1307 9.70802V1.93164C21.1307 0.933578 20.8404 0.48877 20.0068 0.48877H13.8251C13.2 0.48877 12.8241 0.951993 12.8241 1.39101C12.8241 2.33715 14.241 2.55534 14.387 5.21683V10.9972C14.387 12.2645 14.1577 12.4943 13.6576 12.4943C12.324 12.4943 9.08002 7.60704 7.15606 2.01477C6.77901 0.927836 6.40084 0.48877 5.39546 0.48877H1.46164C0.337693 0.48877 0.112892 1.01671 0.112892 1.59888C0.112892 2.63854 1.44654 7.79512 6.3226 14.6151C9.57327 19.2725 14.1533 21.7972 18.3209 21.7972C20.8214 21.7972 21.1307 21.2365 21.1307 20.2706V16.7505C21.1307 15.629 21.3676 15.4052 22.1595 15.4052C22.7429 15.4052 23.7431 15.6962 26.077 17.9418C28.7443 20.6033 29.184 21.7972 30.6843 21.7972H34.6181C35.7421 21.7972 36.304 21.2365 35.9799 20.1299C35.6251 19.027 34.3516 17.4268 32.6618 15.5299C31.7449 14.4487 30.3697 13.2844 29.9528 12.7021C29.3694 11.9536 29.5361 11.6209 29.9528 10.9556C29.9528 10.9556 34.7457 4.21877 35.2458 1.93164Z" fill="white"/>
</svg>
